# xmcd CD database file
# Generated: Fri Sep 20 20:21:35 2002 by KSCD
# 
# Track frame offsets:
#       182
#       17220
#       39792
#       56035
#       83177
#       102955
#       123845
#       145982
#       154105
#       176340
#       201487
#       217165
#
# Disc length: 3230 seconds
#
# Revision: 1
# Processed by: cddbd v1.4PL0 Copyright (c) Steve Scherf et al.
# Submitted via: Kscd 1.3.3
#
DISCID=a60c9c0c
DTITLE=Built For Comfort - Big
DYEAR=1900
DGENRE=
TTITLE0=I Don't Want Much
TTITLE1=Honey Hush
TTITLE2=Let The Good Times Roll
TTITLE3=Use Me
TTITLE4=Parchment Farm
TTITLE5=Every Day I Have The Blues
TTITLE6=Boomerang
TTITLE7=Steamed Up
TTITLE8=New Pony Blues
TTITLE9=The Thrill Has Gone
TTITLE10=Caldonia
TTITLE11=Shakey Ground
EXTD=
EXTT0=
EXTT1=
EXTT2=
EXTT3=
EXTT4=
EXTT5=
EXTT6=
EXTT7=
EXTT8=
EXTT9=
EXTT10=
EXTT11=
PLAYORDER=
